<svg xmlns="http://www.w3.org/2000/svg" width="960" height="640" viewBox="0 0 960 640">
  <defs>
    <linearGradient id="bg" x1="0" x2="1" y1="0" y2="1">
      <stop offset="0" stop-color="#082f49"/>
      <stop offset="1" stop-color="#0f766e"/>
    </linearGradient>
    <linearGradient id="rack" x1="0" x2="0" y1="0" y2="1">
      <stop offset="0" stop-color="#e2e8f0"/>
      <stop offset="1" stop-color="#94a3b8"/>
    </linearGradient>
  </defs>
  <rect width="960" height="640" fill="url(#bg)"/>
  <path d="M0 470 C180 420 260 520 420 470 S720 420 960 490 V640 H0Z" fill="#031f2f" opacity="0.68"/>
  <g transform="translate(170 112)">
    <rect x="0" y="0" width="170" height="390" rx="18" fill="url(#rack)" opacity="0.95"/>
    <rect x="35" y="44" width="100" height="18" rx="9" fill="#0f172a"/>
    <rect x="35" y="91" width="100" height="18" rx="9" fill="#0f172a"/>
    <rect x="35" y="138" width="100" height="18" rx="9" fill="#0f172a"/>
    <circle cx="58" cy="230" r="11" fill="#22c55e"/>
    <circle cx="96" cy="230" r="11" fill="#38bdf8"/>
    <circle cx="134" cy="230" r="11" fill="#f59e0b"/>
  </g>
  <g transform="translate(395 84)">
    <rect x="0" y="0" width="210" height="450" rx="20" fill="#f8fafc" opacity="0.98"/>
    <rect x="38" y="52" width="134" height="24" rx="12" fill="#0f172a"/>
    <rect x="38" y="118" width="134" height="24" rx="12" fill="#0f172a"/>
    <rect x="38" y="184" width="134" height="24" rx="12" fill="#0f172a"/>
    <rect x="38" y="250" width="134" height="24" rx="12" fill="#0f172a"/>
    <circle cx="72" cy="344" r="14" fill="#22c55e"/>
    <circle cx="118" cy="344" r="14" fill="#38bdf8"/>
    <circle cx="164" cy="344" r="14" fill="#f59e0b"/>
  </g>
  <g transform="translate(662 130)">
    <rect x="0" y="0" width="145" height="340" rx="16" fill="url(#rack)" opacity="0.9"/>
    <rect x="28" y="42" width="90" height="17" rx="8.5" fill="#0f172a"/>
    <rect x="28" y="88" width="90" height="17" rx="8.5" fill="#0f172a"/>
    <rect x="28" y="134" width="90" height="17" rx="8.5" fill="#0f172a"/>
    <circle cx="51" cy="235" r="10" fill="#22c55e"/>
    <circle cx="86" cy="235" r="10" fill="#38bdf8"/>
  </g>
  <text x="480" y="585" fill="#e0f2fe" text-anchor="middle" font-family="Arial, sans-serif" font-size="34" font-weight="700">Mock AI Image: Futuristic Server Room</text>
</svg>
